<?xml version="1.0" encoding="UTF-8"?>
<!DOCTYPE svg PUBLIC "-//W3C//DTD SVG 1.1//EN" "http://www.w3.org/Graphics/SVG/1.1/DTD/svg11.dtd">
<svg version="1.2" xmlns="http://www.w3.org/2000/svg" xmlns:xlink="http://www.w3.org/1999/xlink" x="0" y="0" width="289" height="188" viewBox="0 0 289 188">
<style type="text/css"><![CDATA[
text { font:12px Dialog; }
]]></style>
<rect x="-485" y="-485" width="1259" height="1158" style="fill:rgb(255,255,255);stroke:none" />
<clipPath id="clip1"><path d="M15,15 L274,15 L274,173 L15,173 Z M26,63 C21.5817184,63 18,66.5817184 18,71 L18,116 C18,120.4182816 21.5817184,124 26,124 L151,124 C155.4182739,124 159,120.4182816 159,116 L159,71 C159,66.5817184 155.4182739,63 151,63 Z M26,63" /></clipPath>
<path d="M147.3793335,63 C159.9617004,43.4466667 178.8352661,33.6699982 204,33.6699982" style="fill:none;stroke:rgb(85,142,213)" clip-path="url(#clip1)" />
<clipPath id="clip2"><path d="M15,15 L274,15 L274,173 L15,173 Z M26,63 C21.5817184,63 18,66.5817184 18,71 L18,116 C18,120.4182816 21.5817184,124 26,124 L151,124 C155.4182739,124 159,120.4182816 159,116 L159,71 C159,66.5817184 155.4182739,63 151,63 Z M26,63" /></clipPath>
<path d="M147.0466156,124 C159.7029266,143.7799988 178.6873779,153.6699982 204,153.6699982" style="fill:none;stroke:rgb(85,142,213)" clip-path="url(#clip2)" />
<clipPath id="clip3"><path d="M14,59 L164,59 L164,129 L14,129 L14,59 Z" /></clipPath>
<path d="M26,63 C21.5817184,63 18,66.5817184 18,71 L18,116 C18,120.4182816 21.5817184,124 26,124 L151,124 C155.4182739,124 159,120.4182816 159,116 L159,71 C159,66.5817184 155.4182739,63 151,63 Z M26,63" style="fill:rgb(220,230,242);stroke:none" clip-path="url(#clip3)" />
<clipPath id="clip4"><path d="M14,59 L164,59 L164,129 L14,129 L14,59 Z" /></clipPath>
<path d="M26,63 C21.5817184,63 18,66.5817184 18,71 L18,116 C18,120.4182816 21.5817184,124 26,124 L151,124 C155.4182739,124 159,120.4182816 159,116 L159,71 C159,66.5817184 155.4182739,63 151,63 Z M26,63" style="fill:none;stroke:rgb(85,142,213);stroke-width:5" clip-path="url(#clip4)" />
<clipPath id="clip5"><path d="M50,79 L128,79 L128,109 L50,109 L50,79 Z" /></clipPath>
<path d="M57.9589996,88.4919968 L68.9749985,88.4919968 L68.9749985,86.8899994 L58.7689972,86.8899994 C58.9129982,86.5660019 59.0389977,86.223999 59.1469955,85.8639984 L57.2929993,85.5220032 C56.6629982,87.447998 55.4569969,89.0859985 53.6749992,90.4179993 L54.8089981,91.8939972 C55.3849983,91.4440002 55.9249992,90.9580002 56.428997,90.4540024 L56.428997,95.3499985 L58.4809952,95.3499985 C57.5449982,96.4300003 56.1769981,97.3300018 54.3409996,98.0500031 L55.3129959,99.6340027 C56.1409988,99.237999 56.8969994,98.8059998 57.598999,98.3379974 C58.4089966,98.9860001 59.3089981,99.5619965 60.2809982,100.0839996 C58.534996,100.4800034 56.4829979,100.7320023 54.1249962,100.8219986 L54.862999,102.4599991 C57.8689957,102.2799988 60.4249954,101.8119965 62.5309982,101.0559998 C64.5469971,101.776001 66.8330002,102.1900024 69.3889999,102.3160019 L69.8209991,100.6060028 C68.0209961,100.5339966 66.3470001,100.3359985 64.8349991,100.012001 C66.022995,99.3280029 67.0130005,98.5 67.7689972,97.5459976 L67.7689972,96.25 L59.9389954,96.25 C60.1549988,95.961998 60.3709984,95.6740036 60.586998,95.3499985 L67.6790009,95.3499985 L67.6790009,89.3199997 L57.4009972,89.3199997 C57.5809975,89.0500031 57.7789993,88.7799988 57.9589996,88.4919968 Z M62.5669975,99.3639984 C61.3429985,98.9319992 60.2269974,98.3740005 59.2369995,97.7259979 L65.4109955,97.7259979 C64.6369934,98.3740005 63.6829987,98.9140015 62.5669975,99.3639984 Z M65.8610001,93.9100037 L58.2649994,93.9100037 L58.2649994,93.0100021 L65.8610001,93.0100021 Z M58.2649994,91.6419983 L58.2649994,90.7600021 L65.8610001,90.7600021 L65.8610001,91.6419983 Z M73.8170013,89.5719986 L75.8149948,89.5719986 L75.8149948,91.3359985 L71.6749954,91.3359985 L71.6749954,93.0820007 L75.8149948,93.0820007 L75.8149948,94.4499969 L72.3409958,94.4499969 L72.3409958,101.2539978 L74.1589966,101.2539978 L74.1589966,96.1780014 L75.8149948,96.1780014 L75.8149948,102.3700027 L77.6869965,102.3700027 L77.6869965,96.1780014 L79.3610001,96.1780014 L79.3610001,98.8779984 C79.3610001,99.2740021 79.1089935,99.4720001 78.6409988,99.4720001 L77.8849945,99.3820038 L78.3529968,101.1279984 L79.2169952,101.1279984 C80.4949951,101.1279984 81.1429977,100.4980011 81.1429977,99.2740021 L81.1429977,94.4499969 L77.6869965,94.4499969 L77.6869965,93.0820007 L81.3590012,93.0820007 L81.3590012,91.3359985 L77.6869965,91.3359985 L77.6869965,89.5719986 L80.836998,89.5719986 L80.836998,87.8440018 L77.6869965,87.8440018 L77.6869965,85.7559967 L75.8149948,85.7559967 L75.8149948,87.8440018 L74.375,87.8440018 C74.4830017,87.447998 74.572998,87.0159988 74.6449966,86.5480042 L72.8809967,86.2600021 C72.6469955,87.8980026 72.1069946,89.1760025 71.2789993,90.0940018 L72.8089981,91.1740036 C73.1869965,90.7419968 73.5289993,90.2200012 73.8170013,89.5719986 Z M82.1329956,87.3939972 L82.1329956,98.3740005 L83.9509964,98.3740005 L83.9509964,87.3939972 Z M85.6609955,102.2080002 C86.9029999,102.2080002 87.5329971,101.5780029 87.5329971,100.3180008 L87.5329971,85.7740021 L85.6609955,85.7740021 L85.6609955,99.8320007 C85.6609955,100.3000031 85.4449997,100.5339966 85.0130005,100.5339966 C84.2389984,100.5339966 83.4290009,100.4980011 82.5649948,100.4260025 L82.9789963,102.2080002 Z M97.3249969,89.0319977 L97.3249969,90.8499985 L102.310997,90.8499985 L102.310997,99.6880035 C102.310997,100.3000031 101.9689941,100.6060028 101.284996,100.6060028 C100.5110016,100.6060028 99.7009964,100.552002 98.836998,100.4800034 L99.2509995,102.3160019 L101.9329987,102.3160019 C103.4449997,102.3160019 104.2009964,101.5960007 104.2009964,100.1559982 L104.2009964,90.8499985 L106.0009995,90.8499985 L106.0009995,89.0319977 L104.2009964,89.0319977 L104.2009964,85.6839981 L102.310997,85.6839981 L102.310997,89.0319977 Z M91.1869965,90.3460007 L89.9089966,91.552002 C91.1329956,92.9199982 92.2309952,94.2340012 93.2029953,95.5299988 C92.3030014,97.0780029 91.0429993,98.4639969 89.4409943,99.6699982 L90.5209961,101.2900009 C92.0509949,99.9940033 93.310997,98.5899963 94.2829971,97.0599976 C94.822998,97.8339996 95.2910004,98.5899963 95.7229996,99.3460007 L97.1269989,97.9420013 C96.5509949,97.0419998 95.9389954,96.1600037 95.2549973,95.2600021 C96.1549988,93.262001 96.6230011,91.0839996 96.6409988,88.7080002 L96.6409988,87.3399963 L90.2509995,87.3399963 L90.2509995,89.1579971 L95.0029984,89.1579971 C94.9129944,90.7779999 94.6069946,92.3079987 94.0670013,93.711998 C93.1669998,92.5960007 92.2129974,91.461998 91.1869965,90.3460007 Z M98.6389999,92.5419998 L97.1989975,93.5859985 C98.3149948,94.9720001 99.1790009,96.25 99.8269958,97.4020004 L101.3029938,96.3580017 C100.6909943,95.2600021 99.7910004,93.9820023 98.6389999,92.5419998 Z M109.5830002,90.2740021 L109.5830002,93.5680008 L112.8589935,93.5680008 C111.6709976,94.2160034 110.086998,94.6660004 108.125,94.9540024 L108.8450012,96.5199966 C111.2749939,96.1240005 113.2009964,95.4400024 114.6409988,94.4499969 C114.8569946,94.6299973 115.072998,94.8460007 115.2890015,95.0619965 C113.5970001,96.1060028 111.2569962,96.9520035 108.2509995,97.6360016 L109.1689987,99.2200012 C112.0670013,98.4280014 114.3889999,97.4199982 116.1529999,96.1959991 C116.2969971,96.4120026 116.4229965,96.6640015 116.5309982,96.9339981 C114.5329971,98.3199997 111.7070007,99.4720001 108.0709991,100.3720016 L109.0249939,101.973999 C112.2649994,101.0920029 114.8929977,99.9759979 116.927002,98.6080017 C116.927002,98.6800003 116.9449997,98.788002 116.9449997,98.8959961 C116.9449997,99.6159973 116.8009949,100.0839996 116.5130005,100.3359985 C116.1889954,100.5699997 115.7929993,100.6959991 115.2890015,100.7320023 C114.8569946,100.75 114.298996,100.7679977 113.6329956,100.7679977 L114.2089996,102.4779968 C114.677002,102.4779968 115.1089935,102.4599991 115.5049973,102.423996 C116.7289963,102.2980042 117.5749969,102.0279999 118.0429993,101.6139984 C118.5830002,101.1100006 118.8529968,100.1920013 118.8529968,98.8959961 C118.8170013,98.3199997 118.7269974,97.762001 118.5469971,97.185997 C118.6909943,97.1320038 118.8349991,97.0780029 119.0149994,97.0419998 C119.8430023,98.7340012 121.1929932,100.2819977 123.0469971,101.685997 L124.3249969,100.0660019 C122.560997,99.0220032 121.336998,97.8160019 120.6349945,96.4840012 C121.6069946,96.1060028 122.5069962,95.6740036 123.3349991,95.1880035 L122.0930023,93.7659988 C120.9409943,94.5220032 119.5369949,95.1699982 117.862999,95.6740036 C117.4309998,94.935997 116.836998,94.2340012 116.098999,93.5680008 L122.8669968,93.5680008 L122.8669968,89.1760025 L118.6549988,89.1760025 C119.086998,88.8160019 119.5189972,88.4199982 119.9689941,87.9700012 L119.9689941,86.7639999 L114.5509949,86.7639999 C114.8029938,86.512001 115.0550003,86.2419968 115.3069992,85.9899979 L113.3269958,85.5400009 C111.7070007,87.1419983 109.7809982,88.3659973 107.5670013,89.2300034 L108.7369995,90.6699982 C109.0249939,90.526001 109.2949982,90.4000015 109.5830002,90.2740021 Z M116.2969971,89.1760025 L111.5089951,89.1760025 C111.9769974,88.8700027 112.427002,88.5459976 112.8769989,88.2040024 L117.5749969,88.2040024 C117.1429977,88.564003 116.7109985,88.8880005 116.2969971,89.1760025 Z M121.0130005,92.0199966 L116.8549957,92.0199966 C117.0709991,91.6240005 117.2330017,91.1920013 117.3769989,90.723999 L121.0130005,90.723999 Z M114.7669983,92.0199966 L111.4369965,92.0199966 L111.4369965,90.723999 L115.4689941,90.723999 C115.3069992,91.1740036 115.072998,91.6060028 114.7669983,92.0199966 Z M124.7749939,100.4980011" style="fill:rgb(55,96,146);stroke:none" clip-path="url(#clip5)" />
<clipPath id="clip6"><path d="M202,14 L275,14 L275,54 L202,54 L202,14 Z" /></clipPath>
<path d="M209,16 C206.2385712,16 204,18.2385712 204,21 L204,46 C204,48.761425 206.2385712,51 209,51 L267,51 C269.7614136,51 272,48.761425 272,46 L272,21 C272,18.2385712 269.7614136,16 267,16 Z M209,16" style="fill:rgb(220,230,242);stroke:none" clip-path="url(#clip6)" />
<clipPath id="clip7"><path d="M202,14 L275,14 L275,54 L202,54 L202,14 Z" /></clipPath>
<path d="M209,16 C206.2385712,16 204,18.2385712 204,21 L204,46 C204,48.761425 206.2385712,51 209,51 L267,51 C269.7614136,51 272,48.761425 272,46 L272,21 C272,18.2385712 269.7614136,16 267,16 Z M209,16" style="fill:none;stroke:rgb(85,142,213);stroke-width:2" clip-path="url(#clip7)" />
<clipPath id="clip8"><path d="M216,23 L261,23 L261,45 L216,45 L216,23 Z" /></clipPath>
<path d="M225.7279968,30.3274994 C225.2079926,31.3675003 224.4149933,32.199501 223.3619995,32.8235016 L224.0509949,33.4085007 C225.0649872,32.7714996 225.8969879,31.8484993 226.5209961,30.6394997 Z M227.9899902,30.2495003 L227.2879944,30.6915016 C228.276001,31.6534996 229.0429993,32.5245018 229.6019897,33.3305016 L230.3559875,32.8105011 C229.8099976,32.0825005 229.0169983,31.2244987 227.9899902,30.2495003 Z M220.3589935,28.2734985 L219.7220001,28.8844986 C220.7489929,29.5865021 221.5549927,30.2495003 222.1399994,30.8735008 L222.7769928,30.2364998 C222.1139984,29.5865021 221.3079987,28.9235001 220.3589935,28.2734985 Z M220.0469971,31.3155022 L219.4229889,31.9394989 C220.397995,32.6415024 221.1649933,33.3045006 221.7109985,33.9285011 L222.3349915,33.3045006 C221.7109985,32.6415024 220.9570007,31.9785004 220.0469971,31.3155022 Z M221.9059906,34.9425011 C221.2689972,36.489502 220.5279999,37.9975014 219.6699982,39.4664993 L220.5410004,39.843502 C221.3209991,38.4135017 222.0359955,36.8795013 222.6729889,35.2545013 Z M225.5979919,35.1635017 C224.9219971,36.489502 223.8559875,37.581501 222.3869934,38.4394989 L222.8679962,39.232502 C224.4669952,38.1665001 225.6109924,36.8144989 226.2999878,35.1635017 L226.5339966,35.1635017 L226.5339966,39.9345016 L227.4440002,39.9345016 L227.4440002,35.1635017 L227.6909943,35.1635017 C228.2630005,36.6194992 229.2639923,37.9324989 230.6940002,39.1155014 L231.2919922,38.3745003 C229.9139862,37.425499 228.9389954,36.3595009 228.3669891,35.1635017 L230.8499908,35.1635017 L230.8499908,34.3185005 L227.4440002,34.3185005 L227.4440002,32.8624992 L226.5339966,32.8624992 L226.5339966,34.3185005 L223.1539917,34.3185005 L223.1539917,35.1635017 Z M230.6029968,28.5985031 L223.3880005,28.5985031 L223.3880005,31.081501 L224.2719879,31.081501 L224.2719879,29.4564972 L229.7189941,29.4564972 L229.7189941,31.0294991 L230.6029968,31.0294991 Z M237.0639954,29.3655014 L237.0639954,30.2234993 L239.0789948,30.2234993 L239.0789948,31.7055016 L236.4789886,31.7055016 L236.4789886,32.550499 L240.3009949,32.550499 C239.0009918,33.7985001 237.4409943,34.7345009 235.6209869,35.3585014 L236.1149902,36.1124992 C236.894989,35.8264999 237.6489868,35.475502 238.3639984,35.0725021 L237.973999,36.8274994 L242.2509918,36.8274994 C242.1729889,37.7895012 242.0559998,38.3875008 241.8999939,38.6215019 C241.7179871,38.8554993 241.276001,38.9855003 240.5739899,38.9855003 C240.0929871,38.9855003 239.5339966,38.9594994 238.8969879,38.9205017 L239.1959991,39.739502 C239.6639862,39.7915001 240.196991,39.8175011 240.7819977,39.8175011 C241.6660004,39.8175011 242.2769928,39.6355019 242.5889893,39.2975006 C242.8880005,38.9464989 243.0829926,37.8544998 243.173996,36.0084991 L239.0269928,36.0084991 L239.3259888,34.7605019 L243.6289978,34.7605019 L243.6289978,33.9285011 L240.0279999,33.9285011 C240.5349884,33.5125008 241.0159912,33.0574989 241.4839935,32.550499 L243.9539948,32.550499 L243.9539948,31.7055016 L242.1989899,31.7055016 C242.7449951,31.0035019 243.2389984,30.2104988 243.6940002,29.3525009 L242.9399872,28.9625015 C242.4199982,29.9765015 241.8089905,30.8865013 241.1069946,31.7055016 L239.9759979,31.7055016 L239.9759979,30.2234993 L241.9909973,30.2234993 L241.9909973,29.3655014 L239.9759979,29.3655014 L239.9759979,28.0524979 L239.0789948,28.0524979 L239.0789948,29.3655014 Z M233.8139954,39.843502 C234.5419922,39.843502 234.9189911,39.4534988 234.9189911,38.699501 L234.9189911,34.9295006 C235.3089905,34.7605019 235.6989899,34.5784988 236.0889893,34.3704987 L236.0889893,33.4345016 C235.6989899,33.6425018 235.3089905,33.8375015 234.9189911,34.0195007 L234.9189911,31.3544998 L236.2969971,31.3544998 L236.2969971,30.4575005 L234.9189911,30.4575005 L234.9189911,28.0784988 L234.0089874,28.0784988 L234.0089874,30.4575005 L232.4359894,30.4575005 L232.4359894,31.3544998 L234.0089874,31.3544998 L234.0089874,34.3964996 C233.423996,34.6175003 232.8259888,34.7994995 232.2149963,34.9555016 L232.4489899,35.8655014 C232.9689941,35.7094994 233.4889984,35.5275002 234.0089874,35.3195 L234.0089874,38.4654999 C234.0089874,38.8295021 233.8399963,39.0245018 233.5019989,39.0245018 C233.1899872,39.0245018 232.8519897,38.9985008 232.5009918,38.9594994 L232.6959991,39.843502 Z M255.0559998,28.5985031 L247.4769897,28.5985031 L247.4769897,36.4505005 L248.4389954,36.4505005 L248.4389954,29.5084991 L254.0939941,29.5084991 L254.0939941,36.3985023 L255.0559998,36.3985023 Z M250.7659912,30.5354996 L250.7659912,33.6555023 C250.7269897,35.0595016 250.3759918,36.2034988 249.6999969,37.0875015 C248.9850006,37.9324989 247.7109985,38.6085014 245.8909912,39.1155014 L246.4109955,39.9345016 C248.2569885,39.4145012 249.5829926,38.6735001 250.3889923,37.7244987 C251.220993,36.7104988 251.6759949,35.3455009 251.7279968,33.6555023 L251.7279968,30.5354996 Z M252.2609863,36.6324997 L251.7669983,37.3605003 C253.2229919,37.9845009 254.6529999,38.8554993 256.0440063,39.9475021 L256.5769958,39.1285019 C255.2769928,38.1534996 253.8339996,37.3214989 252.2609863,36.6324997 Z M257.7340088,38.6865005" style="fill:rgb(23,55,94);stroke:none" clip-path="url(#clip8)" />
<clipPath id="clip9"><path d="M202,134 L275,134 L275,174 L202,174 L202,134 Z" /></clipPath>
<path d="M209,136 C206.2385712,136 204,138.2385712 204,141 L204,166 C204,168.7614288 206.2385712,171 209,171 L267,171 C269.7614136,171 272,168.7614288 272,166 L272,141 C272,138.2385712 269.7614136,136 267,136 Z M209,136" style="fill:rgb(220,230,242);stroke:none" clip-path="url(#clip9)" />
<clipPath id="clip10"><path d="M202,134 L275,134 L275,174 L202,174 L202,134 Z" /></clipPath>
<path d="M209,136 C206.2385712,136 204,138.2385712 204,141 L204,166 C204,168.7614288 206.2385712,171 209,171 L267,171 C269.7614136,171 272,168.7614288 272,166 L272,141 C272,138.2385712 269.7614136,136 267,136 Z M209,136" style="fill:none;stroke:rgb(85,142,213);stroke-width:2" clip-path="url(#clip10)" />
<clipPath id="clip11"><path d="M216,143 L261,143 L261,165 L216,165 L216,143 Z" /></clipPath>
<path d="M229.9530029,150.3925018 L226.3650055,150.8085022 L226.3650055,148.0785065 L225.4160156,148.0785065 L225.4160156,150.9255066 L223.102005,151.1985016 L223.2450104,152.0435028 L225.4420013,151.7835083 C225.4680023,152.4335022 225.5070038,153.0444946 225.5850067,153.6425018 L222.8420105,154.0195007 L222.9850159,154.9035034 L225.7280121,154.5265045 C225.780014,154.838501 225.8450012,155.1634979 225.9230042,155.4754944 C226.0920105,156.138504 226.3000031,156.736496 226.5470123,157.2825012 C225.4030151,158.0234985 224.1160126,158.5955048 222.6600037,158.9855042 L223.1930084,159.739502 C224.5450134,159.388504 225.7930145,158.8294983 226.9630127,158.0625 C227.0930023,158.2835083 227.2360077,158.4915009 227.405014,158.6994934 C228.0550079,159.4794922 228.7310028,159.8825073 229.4330139,159.9085083 C230.1480103,159.9085083 230.6940155,159.0635071 231.0580139,157.3865051 L230.2650146,156.8665009 C230.0050049,158.2315063 229.7060089,158.9205017 229.3420105,158.9205017 C228.9260101,158.9205017 228.4710083,158.5955048 227.9640045,157.9454956 C227.8730011,157.815506 227.7820129,157.6725006 227.70401,157.5295105 C228.6010132,156.8404999 229.4330139,156.0084991 230.2130127,155.0335083 L229.4850159,154.5525055 C228.8350067,155.3845062 228.1200104,156.1125031 227.3140106,156.736496 C227.0930023,156.2294922 226.9110107,155.6575012 226.7810059,155.0205078 C226.7290039,154.8125 226.6900024,154.6044922 226.6640015,154.3964996 L230.7980042,153.8374939 L230.655014,152.9535065 L226.5340118,153.5124969 C226.4560089,152.940506 226.4170074,152.3294983 226.3910065,151.6795044 L230.0960083,151.2505035 Z M228.2110138,148.039505 L227.4960022,148.4815063 C228.0940094,149.0794983 228.5750122,149.638504 228.9130096,150.1455078 L229.6150055,149.6515045 C229.2900085,149.1965027 228.8220062,148.6634979 228.2110138,148.039505 Z M220.4500122,148.286499 L219.8000031,148.8975067 C220.7750092,149.5995026 221.5420074,150.2624969 222.0880127,150.8735046 L222.7510071,150.2234955 C222.1270142,149.5735016 221.3600159,148.9364929 220.4500122,148.286499 Z M220.0990143,151.315506 L219.4360046,151.9654999 C220.3460083,152.6674957 221.0610046,153.3175049 221.5810089,153.9414978 L222.2570038,153.2655029 C221.6850128,152.615509 220.9570007,151.9654999 220.0990143,151.315506 Z M221.7500153,154.9295044 C221.1650085,156.489502 220.4890137,158.010498 219.7090149,159.4924927 L220.5930023,159.8695068 C221.3210144,158.4394989 221.9840088,156.9055023 222.5820007,155.2675018 Z M237.0510101,149.3785095 L237.0510101,150.236496 L239.0660095,150.236496 L239.0660095,151.7185059 L236.4660034,151.7185059 L236.4660034,152.5635071 L240.2880096,152.5635071 C238.9880066,153.8114929 237.428009,154.7474976 235.6080017,155.3715057 L236.102005,156.1255035 C236.8820038,155.8395081 237.6360016,155.4884949 238.3510132,155.0855103 L237.9610138,156.8404999 L242.2380066,156.8404999 C242.1600037,157.8025055 242.0430145,158.4004974 241.8870087,158.634491 C241.7050018,158.8684998 241.2630157,158.9985046 240.5610046,158.9985046 C240.0800018,158.9985046 239.5210114,158.9725037 238.8840027,158.9335022 L239.1830139,159.7525024 C239.651001,159.8045044 240.1840057,159.8305054 240.7690125,159.8305054 C241.6530151,159.8305054 242.2640076,159.6484985 242.576004,159.3105011 C242.8750153,158.9595032 243.0700073,157.8674927 243.1610107,156.0214996 L239.0140076,156.0214996 L239.3130035,154.7734985 L243.6160126,154.7734985 L243.6160126,153.9414978 L240.0150146,153.9414978 C240.5220032,153.5254974 241.003006,153.0704956 241.4710083,152.5635071 L243.9410095,152.5635071 L243.9410095,151.7185059 L242.1860046,151.7185059 C242.7320099,151.01651 243.2260132,150.2234955 243.681015,149.365509 L242.927002,148.9754944 C242.4070129,149.989502 241.7960052,150.8995056 241.0940094,151.7185059 L239.9630127,151.7185059 L239.9630127,150.236496 L241.9780121,150.236496 L241.9780121,149.3785095 L239.9630127,149.3785095 L239.9630127,148.065506 L239.0660095,148.065506 L239.0660095,149.3785095 Z M233.8010101,159.8565063 C234.529007,159.8565063 234.9060059,159.4664917 234.9060059,158.7124939 L234.9060059,154.9425049 C235.2960052,154.7734985 235.6860046,154.5914917 236.076004,154.3834991 L236.076004,153.4475098 C235.6860046,153.6555023 235.2960052,153.8504944 234.9060059,154.0325012 L234.9060059,151.3674927 L236.2840118,151.3674927 L236.2840118,150.4705048 L234.9060059,150.4705048 L234.9060059,148.0914917 L233.9960022,148.0914917 L233.9960022,150.4705048 L232.4230042,150.4705048 L232.4230042,151.3674927 L233.9960022,151.3674927 L233.9960022,154.4095001 C233.4110107,154.6304932 232.8130035,154.8125 232.2020111,154.9685059 L232.4360046,155.8785095 C232.9560089,155.7225037 233.4760132,155.5404968 233.9960022,155.3325043 L233.9960022,158.4785004 C233.9960022,158.8424988 233.8270111,159.0375061 233.4890137,159.0375061 C233.177002,159.0375061 232.8390045,159.0115051 232.4880066,158.9725037 L232.6830139,159.8565063 Z M255.0430145,148.611496 L247.4640045,148.611496 L247.4640045,156.463501 L248.4260101,156.463501 L248.4260101,149.5214996 L254.0810089,149.5214996 L254.0810089,156.411499 L255.0430145,156.411499 Z M250.753006,150.5484924 L250.753006,153.6685028 C250.7140045,155.0725098 250.3630066,156.2164917 249.6870117,157.1004944 C248.9720154,157.9454956 247.6980133,158.6214905 245.878006,159.1285095 L246.3980103,159.9475098 C248.2440033,159.4274902 249.5700073,158.6864929 250.3760071,157.7375031 C251.2080078,156.7234955 251.6630096,155.3585052 251.7150116,153.6685028 L251.7150116,150.5484924 Z M252.2480011,156.6455078 L251.7540131,157.3735046 C253.2100067,157.9974976 254.6400146,158.8684998 256.0310059,159.9605103 L256.5640259,159.14151 C255.2640076,158.1665039 253.8210144,157.3345032 252.2480011,156.6455078 Z M257.7210083,158.6994934" style="fill:rgb(23,55,94);stroke:none" clip-path="url(#clip11)" />
</svg>
